<mxfile host="app.diagrams.net" agent="Mozilla/5.0 (Windows NT 10.0; Win64; x64) AppleWebKit/537.36 (KHTML, like Gecko) Chrome/129.0.0.0 Safari/537.36" version="24.7.17">
  <diagram name="Page-1" id="s-xBoDi-Jq4rI9YQdUy8">
    <mxGraphModel dx="1379" dy="330" grid="0" gridSize="10" guides="1" tooltips="1" connect="1" arrows="1" fold="1" page="0" pageScale="1" pageWidth="850" pageHeight="1100" math="0" shadow="0">
      <root>
        <mxCell id="0" />
        <mxCell id="1" parent="0" />
        <mxCell id="QGDAKIF6tgs46F8sUcso-2" style="edgeStyle=none;curved=1;rounded=0;orthogonalLoop=1;jettySize=auto;html=1;fontSize=12;startSize=8;endSize=8;" edge="1" parent="1" source="QGDAKIF6tgs46F8sUcso-1">
          <mxGeometry relative="1" as="geometry">
            <mxPoint x="80.25918579101562" y="101" as="targetPoint" />
          </mxGeometry>
        </mxCell>
        <mxCell id="QGDAKIF6tgs46F8sUcso-1" value="Collections" style="text;strokeColor=none;fillColor=none;html=1;align=center;verticalAlign=middle;whiteSpace=wrap;rounded=0;fontSize=16;" vertex="1" parent="1">
          <mxGeometry x="-38" y="86" width="94" height="30" as="geometry" />
        </mxCell>
        <mxCell id="QGDAKIF6tgs46F8sUcso-3" value="document" style="text;strokeColor=none;fillColor=none;html=1;align=center;verticalAlign=middle;whiteSpace=wrap;rounded=0;fontSize=16;" vertex="1" parent="1">
          <mxGeometry x="164" y="86" width="87" height="30" as="geometry" />
        </mxCell>
        <mxCell id="QGDAKIF6tgs46F8sUcso-4" value="fields" style="text;strokeColor=none;fillColor=none;html=1;align=center;verticalAlign=middle;whiteSpace=wrap;rounded=0;fontSize=16;" vertex="1" parent="1">
          <mxGeometry x="383" y="91" width="60" height="30" as="geometry" />
        </mxCell>
        <mxCell id="QGDAKIF6tgs46F8sUcso-5" value="admin" style="text;strokeColor=none;fillColor=none;html=1;align=center;verticalAlign=middle;whiteSpace=wrap;rounded=0;fontSize=16;" vertex="1" parent="1">
          <mxGeometry x="-21" y="131" width="60" height="30" as="geometry" />
        </mxCell>
        <mxCell id="QGDAKIF6tgs46F8sUcso-6" value="user type" style="text;strokeColor=none;fillColor=none;html=1;align=center;verticalAlign=middle;whiteSpace=wrap;rounded=0;fontSize=16;" vertex="1" parent="1">
          <mxGeometry x="164" y="131" width="101" height="30" as="geometry" />
        </mxCell>
        <mxCell id="QGDAKIF6tgs46F8sUcso-7" value="admin pwd" style="text;strokeColor=none;fillColor=none;html=1;align=center;verticalAlign=middle;whiteSpace=wrap;rounded=0;fontSize=16;" vertex="1" parent="1">
          <mxGeometry x="366" y="131" width="113" height="30" as="geometry" />
        </mxCell>
        <mxCell id="QGDAKIF6tgs46F8sUcso-8" value="blogs" style="text;strokeColor=none;fillColor=none;html=1;align=center;verticalAlign=middle;whiteSpace=wrap;rounded=0;fontSize=16;" vertex="1" parent="1">
          <mxGeometry x="-21" y="179" width="60" height="30" as="geometry" />
        </mxCell>
        <mxCell id="QGDAKIF6tgs46F8sUcso-9" value="uid&#39;s" style="text;strokeColor=none;fillColor=none;html=1;align=center;verticalAlign=middle;whiteSpace=wrap;rounded=0;fontSize=16;" vertex="1" parent="1">
          <mxGeometry x="177.5" y="179" width="60" height="30" as="geometry" />
        </mxCell>
        <mxCell id="QGDAKIF6tgs46F8sUcso-10" value="date&lt;div&gt;description&lt;/div&gt;&lt;div&gt;image url&lt;/div&gt;&lt;div&gt;loves&lt;/div&gt;&lt;div&gt;source&lt;/div&gt;&lt;div&gt;time&lt;/div&gt;&lt;div&gt;title&lt;/div&gt;" style="text;strokeColor=none;fillColor=none;html=1;align=center;verticalAlign=middle;whiteSpace=wrap;rounded=0;fontSize=16;" vertex="1" parent="1">
          <mxGeometry x="370" y="161" width="86" height="155" as="geometry" />
        </mxCell>
        <mxCell id="QGDAKIF6tgs46F8sUcso-11" value="featured" style="text;strokeColor=none;fillColor=none;html=1;align=center;verticalAlign=middle;whiteSpace=wrap;rounded=0;fontSize=16;" vertex="1" parent="1">
          <mxGeometry x="-13" y="336" width="60" height="30" as="geometry" />
        </mxCell>
        <mxCell id="QGDAKIF6tgs46F8sUcso-12" value="featured_list" style="text;strokeColor=none;fillColor=none;html=1;align=center;verticalAlign=middle;whiteSpace=wrap;rounded=0;fontSize=16;" vertex="1" parent="1">
          <mxGeometry x="172" y="334" width="89.5" height="30" as="geometry" />
        </mxCell>
        <mxCell id="QGDAKIF6tgs46F8sUcso-13" value="places:&lt;div&gt;uid&#39;s&lt;/div&gt;" style="text;strokeColor=none;fillColor=none;html=1;align=center;verticalAlign=middle;whiteSpace=wrap;rounded=0;fontSize=16;" vertex="1" parent="1">
          <mxGeometry x="387" y="330" width="60" height="42" as="geometry" />
        </mxCell>
        <mxCell id="QGDAKIF6tgs46F8sUcso-14" value="item_count" style="text;strokeColor=none;fillColor=none;html=1;align=center;verticalAlign=middle;whiteSpace=wrap;rounded=0;fontSize=16;" vertex="1" parent="1">
          <mxGeometry x="-24" y="395" width="82" height="30" as="geometry" />
        </mxCell>
        <mxCell id="QGDAKIF6tgs46F8sUcso-15" value="blogs_count&lt;div&gt;notifications_count&lt;/div&gt;&lt;div&gt;places_count&lt;/div&gt;&lt;div&gt;states_count&lt;/div&gt;&lt;div&gt;users_count&lt;/div&gt;" style="text;strokeColor=none;fillColor=none;html=1;align=center;verticalAlign=middle;whiteSpace=wrap;rounded=0;fontSize=16;" vertex="1" parent="1">
          <mxGeometry x="149" y="386" width="143" height="134" as="geometry" />
        </mxCell>
        <mxCell id="QGDAKIF6tgs46F8sUcso-16" value="count = value" style="text;strokeColor=none;fillColor=none;html=1;align=center;verticalAlign=middle;whiteSpace=wrap;rounded=0;fontSize=16;" vertex="1" parent="1">
          <mxGeometry x="371.5" y="400" width="102" height="30" as="geometry" />
        </mxCell>
        <mxCell id="QGDAKIF6tgs46F8sUcso-17" value="notifications" style="text;strokeColor=none;fillColor=none;html=1;align=center;verticalAlign=middle;whiteSpace=wrap;rounded=0;fontSize=16;" vertex="1" parent="1">
          <mxGeometry x="-29.5" y="556" width="93" height="30" as="geometry" />
        </mxCell>
        <mxCell id="QGDAKIF6tgs46F8sUcso-18" value="uid&#39;s" style="text;strokeColor=none;fillColor=none;html=1;align=center;verticalAlign=middle;whiteSpace=wrap;rounded=0;fontSize=16;" vertex="1" parent="1">
          <mxGeometry x="197" y="551" width="60" height="30" as="geometry" />
        </mxCell>
        <mxCell id="QGDAKIF6tgs46F8sUcso-19" value="ceated at&lt;div&gt;description&lt;/div&gt;&lt;div&gt;timestamp&lt;/div&gt;&lt;div&gt;title&lt;/div&gt;" style="text;strokeColor=none;fillColor=none;html=1;align=center;verticalAlign=middle;whiteSpace=wrap;rounded=0;fontSize=16;" vertex="1" parent="1">
          <mxGeometry x="387" y="539" width="81" height="81" as="geometry" />
        </mxCell>
        <mxCell id="QGDAKIF6tgs46F8sUcso-22" value="places" style="text;strokeColor=none;fillColor=none;html=1;align=center;verticalAlign=middle;whiteSpace=wrap;rounded=0;fontSize=16;" vertex="1" parent="1">
          <mxGeometry x="-21" y="652" width="60" height="30" as="geometry" />
        </mxCell>
        <mxCell id="QGDAKIF6tgs46F8sUcso-23" value="uid&#39;s" style="text;strokeColor=none;fillColor=none;html=1;align=center;verticalAlign=middle;whiteSpace=wrap;rounded=0;fontSize=16;" vertex="1" parent="1">
          <mxGeometry x="197" y="647" width="60" height="30" as="geometry" />
        </mxCell>
        <mxCell id="QGDAKIF6tgs46F8sUcso-24" value="comments count&lt;div&gt;date&lt;/div&gt;&lt;div&gt;description&lt;/div&gt;&lt;div&gt;img1&lt;/div&gt;&lt;div&gt;img2&lt;/div&gt;&lt;div&gt;img3&lt;/div&gt;&lt;div&gt;lat&lt;/div&gt;&lt;div&gt;long&lt;/div&gt;&lt;div&gt;loves&lt;/div&gt;&lt;div&gt;place name&lt;/div&gt;&lt;div&gt;state&lt;/div&gt;&lt;div&gt;timestamp&lt;/div&gt;&lt;div&gt;&lt;br&gt;&lt;/div&gt;" style="text;strokeColor=none;fillColor=none;html=1;align=center;verticalAlign=middle;whiteSpace=wrap;rounded=0;fontSize=16;" vertex="1" parent="1">
          <mxGeometry x="392.5" y="643" width="144.5" height="244" as="geometry" />
        </mxCell>
        <mxCell id="QGDAKIF6tgs46F8sUcso-25" value="states" style="text;strokeColor=none;fillColor=none;html=1;align=center;verticalAlign=middle;whiteSpace=wrap;rounded=0;fontSize=16;" vertex="1" parent="1">
          <mxGeometry x="-21" y="909" width="60" height="30" as="geometry" />
        </mxCell>
        <mxCell id="QGDAKIF6tgs46F8sUcso-26" value="uid&#39;s" style="text;strokeColor=none;fillColor=none;html=1;align=center;verticalAlign=middle;whiteSpace=wrap;rounded=0;fontSize=16;" vertex="1" parent="1">
          <mxGeometry x="197" y="905" width="60" height="30" as="geometry" />
        </mxCell>
        <mxCell id="QGDAKIF6tgs46F8sUcso-27" value="name&lt;div&gt;thumbnail&lt;/div&gt;&lt;div&gt;timestamp&lt;/div&gt;" style="text;strokeColor=none;fillColor=none;html=1;align=center;verticalAlign=middle;whiteSpace=wrap;rounded=0;fontSize=16;" vertex="1" parent="1">
          <mxGeometry x="434.75" y="900" width="60" height="54" as="geometry" />
        </mxCell>
        <mxCell id="QGDAKIF6tgs46F8sUcso-28" value="users" style="text;strokeColor=none;fillColor=none;html=1;align=center;verticalAlign=middle;whiteSpace=wrap;rounded=0;fontSize=16;" vertex="1" parent="1">
          <mxGeometry x="-21" y="995" width="60" height="30" as="geometry" />
        </mxCell>
        <mxCell id="QGDAKIF6tgs46F8sUcso-29" value="uid&#39;s" style="text;strokeColor=none;fillColor=none;html=1;align=center;verticalAlign=middle;whiteSpace=wrap;rounded=0;fontSize=16;" vertex="1" parent="1">
          <mxGeometry x="197" y="995" width="60" height="30" as="geometry" />
        </mxCell>
        <mxCell id="QGDAKIF6tgs46F8sUcso-30" value="bookmarked blogs&lt;div&gt;bookmarked places&lt;/div&gt;&lt;div&gt;email&lt;/div&gt;&lt;div&gt;image url&lt;/div&gt;&lt;div&gt;joining date&lt;/div&gt;&lt;div&gt;loved blogs&lt;/div&gt;&lt;div&gt;loved places&lt;/div&gt;&lt;div&gt;name&lt;/div&gt;&lt;div&gt;uid&lt;/div&gt;" style="text;strokeColor=none;fillColor=none;html=1;align=center;verticalAlign=middle;whiteSpace=wrap;rounded=0;fontSize=16;" vertex="1" parent="1">
          <mxGeometry x="396" y="1067" width="163.25" height="42" as="geometry" />
        </mxCell>
      </root>
    </mxGraphModel>
  </diagram>
</mxfile>
